<svg xmlns="http://www.w3.org/2000/svg" width="129" height="28" fill="none" viewBox="0 0 129 28" class="h-7 w-auto text-neutral-12" color="white"><path fill="white" d="m.606 12.304 2.067 1.938 6.496 6.007 2.756-2.713a.77.77 0 0 0 0-1.065l-2.559-2.229-2.756-2.616a.96.96 0 0 1 0-1.26l7.48-7.072L10.647 0 2.673 7.654.606 9.592A1.84 1.84 0 0 0 0 10.948a1.82 1.82 0 0 0 .606 1.356"/><path fill="white" d="m22.752 15.696-2.067-1.938L14.19 7.75l-2.756 2.713a.77.77 0 0 0 0 1.066l2.559 2.228 2.756 2.713a.864.864 0 0 1 0 1.162l-7.48 7.073L12.711 28l7.973-7.654 2.067-1.938a1.84 1.84 0 0 0 .606-1.356 1.82 1.82 0 0 0-.606-1.356M33.194 18.357a2.34 2.34 0 0 1-.811-.79q-.312-.489-.343-1.2h-2.182c.031.81.208 1.495.509 2.063a3.9 3.9 0 0 0 1.237 1.369c.52.347 1.112.59 1.777.748a10 10 0 0 0 2.12.22c.665 0 1.34-.063 2.016-.189a5.6 5.6 0 0 0 1.828-.663c.54-.326.988-.748 1.32-1.274.333-.516.5-1.169.5-1.969 0-.62-.126-1.147-.375-1.568a3.2 3.2 0 0 0-.977-1.042 5.2 5.2 0 0 0-1.392-.674c-.52-.169-1.06-.306-1.611-.432a67 67 0 0 0-1.548-.337 7.7 7.7 0 0 1-1.383-.41c-.415-.158-.758-.358-1.018-.6a1.2 1.2 0 0 1-.405-.927c0-.337.083-.61.26-.821.166-.21.395-.38.665-.505.28-.127.582-.211.914-.264.343-.052.665-.073.998-.073.363 0 .717.031 1.07.116.353.073.675.189.967.357.29.18.53.4.717.674s.3.632.332 1.053h2.193c-.052-.8-.219-1.453-.51-1.99a3.6 3.6 0 0 0-1.174-1.263 5 5 0 0 0-1.694-.653 10.7 10.7 0 0 0-2.078-.19c-.592 0-1.174.074-1.767.211a5.5 5.5 0 0 0-1.6.664 3.7 3.7 0 0 0-1.164 1.147c-.301.474-.447 1.032-.447 1.695 0 .842.219 1.495.645 1.969.426.473.966.842 1.61 1.095.645.263 1.341.463 2.1.61.758.148 1.454.306 2.099.484.644.169 1.184.4 1.61.695.427.284.645.706.645 1.264 0 .4-.104.736-.312.99a2 2 0 0 1-.78.6 4 4 0 0 1-1.049.273 8 8 0 0 1-1.08.074q-.674 0-1.3-.127a3.5 3.5 0 0 1-1.132-.41M46.16 7.429h-2.182v13.065h2.182zM55.343 9.324V7.429h-2.66V3.502H50.49V7.43h-2.265v1.895h2.265v8.306c0 .61.063 1.106.187 1.474.114.369.301.653.55.853.25.21.573.347.978.421s.894.116 1.455.116h1.683v-1.895h-1.008c-.343 0-.623-.021-.842-.042a1.1 1.1 0 0 1-.498-.158.63.63 0 0 1-.25-.358 2.5 2.5 0 0 1-.062-.61V9.323zM105.132 7.429h-2.193v13.065h2.193zM110.559 9.492V7.43h-2.057v13.065h2.192v-7.38c0-.59.073-1.137.239-1.632a3.7 3.7 0 0 1 .738-1.305 3.2 3.2 0 0 1 1.216-.853c.499-.21 1.07-.305 1.746-.305.842 0 1.507.231 1.985.705s.717 1.116.717 1.916v8.854h2.192v-8.601q0-1.059-.218-1.927a3.6 3.6 0 0 0-.759-1.505c-.363-.421-.831-.748-1.423-.99q-.874-.347-2.182-.347-2.962 0-4.334 2.368zM128.8 9.324V7.429h-2.65V3.502h-2.193V7.43h-2.265v1.895h2.265v8.306c0 .61.063 1.106.187 1.474.115.369.302.653.551.853.25.21.572.347.977.421s.894.116 1.455.116h1.673v-1.895h-1.008c-.333 0-.613-.021-.831-.042q-.328-.032-.499-.158a.63.63 0 0 1-.25-.358 2.5 2.5 0 0 1-.062-.61V9.323z"/><path fill="white" fill-rule="evenodd" d="M67.381 19.652c-.997.747-2.255 1.116-3.761 1.116-1.06 0-1.985-.169-2.765-.506a5.44 5.44 0 0 1-1.974-1.41 6 6 0 0 1-1.195-2.18c-.27-.842-.416-1.758-.457-2.747 0-1 .156-1.906.467-2.738a6.6 6.6 0 0 1 1.3-2.147 6 6 0 0 1 1.984-1.41 6.2 6.2 0 0 1 2.515-.506c1.185 0 2.161.231 2.951.716a5.95 5.95 0 0 1 1.881 1.831c.468.748.79 1.559.977 2.432a10.5 10.5 0 0 1 .218 2.495h-9.976c-.01.58.052 1.116.208 1.632s.405.969.748 1.369.78.716 1.32.947q.795.348 1.87.348c.935 0 1.694-.2 2.286-.632.593-.41.988-1.053 1.175-1.916h2.161c-.29 1.463-.935 2.569-1.933 3.306m-1.33-9.56c.343.327.603.716.8 1.17.198.462.312.936.354 1.441h-7.659a4.3 4.3 0 0 1 .343-1.42c.187-.453.447-.843.769-1.18s.717-.6 1.174-.8c.447-.19.967-.284 1.528-.284.55 0 1.06.094 1.507.284q.686.3 1.184.79M74.331 7.429v1.769h.052c.364-.727.925-1.253 1.704-1.58.77-.336 1.621-.494 2.546-.494 1.04 0 1.933.179 2.692.558.74.345 1.394.857 1.912 1.495.509.631.883 1.368 1.143 2.19.26.831.384 1.705.384 2.631q0 1.39-.374 2.622a6.15 6.15 0 0 1-1.132 2.168c-.5.611-1.143 1.095-1.902 1.453-.77.348-1.652.527-2.67.527q-.484 0-1.092-.095a6 6 0 0 1-1.195-.337 4.5 4.5 0 0 1-1.122-.621 3.3 3.3 0 0 1-.894-.969h-.052v6.727h-2.193V7.43zm7.129 3.074q.498.693.748 1.558c.156.58.239 1.18.239 1.78 0 .642-.062 1.263-.208 1.873a4.8 4.8 0 0 1-.665 1.622 3.46 3.46 0 0 1-1.226 1.137c-.51.284-1.133.42-1.891.42q-1.138 0-1.933-.41c-.53-.284-.967-.642-1.3-1.105-.342-.453-.581-.98-.737-1.58a7.2 7.2 0 0 1-.229-1.852c0-.61.073-1.2.219-1.8a4.9 4.9 0 0 1 .706-1.58 3.8 3.8 0 0 1 1.258-1.116c.52-.294 1.143-.431 1.88-.431.707 0 1.32.137 1.85.4.506.257.947.628 1.289 1.084M87.296 11.282a6.3 6.3 0 0 1 1.236-2.18A6 6 0 0 1 90.58 7.65c.8-.347 1.725-.526 2.774-.526 1.07 0 1.995.179 2.796.526q1.2.537 2.026 1.453c.55.621.956 1.337 1.237 2.18.27.83.415 1.726.415 2.684a8.6 8.6 0 0 1-.415 2.684c-.281.821-.686 1.548-1.237 2.158-.55.622-1.226 1.095-2.026 1.443-.8.347-1.726.516-2.796.516-1.05 0-1.974-.169-2.774-.516-.811-.348-1.497-.821-2.048-1.443a6.3 6.3 0 0 1-1.236-2.158 8.6 8.6 0 0 1-.406-2.684q0-1.437.406-2.685m3.128 6.338c-.385-.41-.676-.927-.894-1.537-.218-.621-.322-1.316-.322-2.116 0-.79.104-1.495.322-2.106s.51-1.137.894-1.558a3.7 3.7 0 0 1 1.32-.958 4 4 0 0 1 1.61-.326c.572 0 1.102.105 1.61.326.51.221.947.537 1.331.958.394.454.695.984.883 1.558.219.61.323 1.316.323 2.106 0 .8-.104 1.495-.323 2.116a4.3 4.3 0 0 1-.883 1.537 4 4 0 0 1-1.338.95c-.506.22-1.052.33-1.603.324a4 4 0 0 1-1.61-.327 3.8 3.8 0 0 1-1.32-.947" clip-rule="evenodd"/><path fill="white" d="M46.36 4.804a1.3 1.3 0 0 1-1.3 1.303 1.3 1.3 0 0 1-1.298-1.303 1.3 1.3 0 0 1 1.299-1.302 1.3 1.3 0 0 1 1.298 1.302M105.348 4.802a1.3 1.3 0 0 1-1.299 1.303 1.3 1.3 0 0 1-1.298-1.303 1.3 1.3 0 0 1 1.298-1.302 1.3 1.3 0 0 1 1.299 1.302"/></svg>