<svg viewBox="0 0 235 72" xmlns="http://www.w3.org/2000/svg" fill="none" width="100%" height="72px"> <text class="custom-font" text-anchor="start" font-weight="bold" font-family="sans-serif" font-size="26" id="svg_7" y="25.33334" x="0" stroke-width="0" stroke="null" fill="#1C365C"> DEVELOPMENT </text> <path stroke-width="100%" id="svg_1" d="m17.6848,71.80622c-2.5218,0 -4.8622,-0.4102 -7.0213,-1.2342c-2.15899,-0.8239 -4.03347,-1.9879 -5.62696,-3.4955c-1.59348,-1.5077 -2.82772,-3.2853 -3.71339,-5.3363c-0.88211,-2.0511 -1.32315,-4.288 -1.32315,-6.7107c0,-2.4227 0.44104,-4.6596 1.32315,-6.7106c0.88211,-2.0511 2.12702,-3.8287 3.73473,-5.3363c1.60772,-1.5076 3.4822,-2.6717 5.62702,-3.4956c2.1448,-0.8239 4.4923,-1.2341 7.0462,-1.2341c2.7103,0 5.1859,0.4593 7.4232,1.3743c2.2373,0.9151 4.1295,2.2755 5.6732,4.0776l-3.973,3.6814c-1.1987,-1.2727 -2.5396,-2.2298 -4.0193,-2.8679c-1.4796,-0.6382 -3.0909,-0.9537 -4.8231,-0.9537c-1.7322,0 -3.3186,0.2805 -4.752,0.8379c-1.4335,0.561 -2.6784,1.3499 -3.73477,2.3772c-1.05639,1.0273 -1.87447,2.2369 -2.4578,3.6358c-0.58333,1.3989 -0.875,2.9346 -0.875,4.614c0,1.6794 0.29167,3.2151 0.875,4.614c0.58333,1.399 1.40141,2.6086 2.4578,3.6359c1.05637,1.0272 2.30127,1.8161 3.73477,2.3771c1.4334,0.561 3.0198,0.8379 4.752,0.8379c1.7322,0 3.3399,-0.319 4.8231,-0.9536c1.4797,-0.6381 2.8206,-1.6093 4.0193,-2.9136l3.973,3.727c-1.5437,1.7706 -3.4359,3.1239 -5.6732,4.0566c-2.2373,0.9326 -4.7271,1.3989 -7.4695,1.3989l0,-0.0035zm33.2392,0c-4.5386,0 -8.092,-1.2587 -10.6636,-3.7761c-2.5681,-2.5174 -3.8521,-6.1532 -3.8521,-10.9074l0,-18.4105l6.1463,0l0,18.1756c0,3.3553 0.7327,5.7955 2.1982,7.3172c1.4654,1.5216 3.5391,2.2824 6.2174,2.2824c2.6783,0 4.7449,-0.7608 6.1925,-2.2824c1.4512,-1.5217 2.1733,-3.9619 2.1733,-7.3172l0,-18.1756l6.0538,0l0,18.4105c0,4.7542 -1.284,8.39 -3.8521,10.9074c-2.5681,2.5174 -6.1072,3.7761 -10.6137,3.7761zm23.0735,-0.4663l0,-32.6277l13.6193,0c2.9309,0 5.4456,0.4663 7.5406,1.3989c2.095,0.9326 3.7134,2.2684 4.8476,4.0075c1.135,1.739 1.704,3.8076 1.704,6.1987c0,2.3912 -0.565,4.4528 -1.704,6.1743c-1.1342,1.725 -2.749,3.0468 -4.8476,3.9618c-2.095,0.9151 -4.6097,1.3744 -7.5406,1.3744l-10.2118,0l2.7423,-2.7487l0,12.2573l-6.1463,0l-0.0035,0.0035zm21.6543,0l-8.3694,-11.8401l6.5732,0l8.4154,11.8401l-6.6192,0zm-15.508,-11.6052l-2.7424,-2.889l9.9308,0c2.7104,0 4.7521,-0.575 6.1215,-1.725c1.3729,-1.15 2.0558,-2.7488 2.0558,-4.7999c0,-2.0826 -0.6864,-3.6814 -2.0558,-4.7998c-1.3694,-1.1184 -3.4111,-1.6794 -6.1215,-1.6794l-9.9308,0l2.7424,-2.9837l0,18.8768zm23.7352,11.6052l14.896,-32.6277l6.054,0l14.942,32.6277l-6.43,0l-12.816,-29.4091l2.458,0l-12.766,29.4091l-6.335,0l-0.003,0zm6.858,-7.5522l1.654,-4.7542l17.873,0l1.654,4.7542l-21.185,0l0.004,0zm38.3,7.5522l0,-27.4983l-10.969,0l0,-5.1259l28.085,0l0,5.1259l-10.97,0l0,27.4983l-6.146,0zm53.432,0l0,-32.6277l14.469,0c3.593,0 6.748,0.6836 9.458,2.051c2.71,1.3674 4.823,3.2642 6.335,5.6869c1.511,2.4227 2.269,5.2837 2.269,8.5759c0,3.2642 -0.758,6.1146 -2.269,8.5514c-1.512,2.4402 -3.625,4.344 -6.335,5.7114c-2.71,1.3674 -5.862,2.0511 -9.458,2.0511l-14.469,0zm6.146,-5.1259l8.039,0c2.489,0 4.641,-0.4664 6.455,-1.399c1.814,-0.9326 3.216,-2.2369 4.208,-3.9163c0.993,-1.6794 1.49,-3.6358 1.49,-5.8727c0,-2.2684 -0.497,-4.2318 -1.49,-5.8972c-0.992,-1.6619 -2.397,-2.9592 -4.208,-3.8918c-1.814,-0.9326 -3.962,-1.3989 -6.455,-1.3989l-8.039,0l0,22.3724l0,0.0035z" fill="#1C365C"></path> <path stroke-width="100%" id="svg_2" d="m172.12333,39.09667l0,5.0804l24.162,0l0,-5.0804l-24.162,0z" fill="#1C365C"></path> <path stroke-width="100%" id="svg_3" d="m172.12333,52.19047l0,0.7082l0,4.281l0,13.6141l0,0.4628l24.824,0l0,-5.0803l-18.677,0l0,-8.9966l13.555,0l2.429,0l0,-4.9892l-2.429,0l-13.555,0l-0.473,0l-5.674,0z" fill="#1C365C"></path> <line x1="0.19048" id="svg_4" y1="33.06243" x2="100%" y2="33.06243" stroke="#1C365C" stroke-width="1.78px"></line> </svg>