<svg xmlns="http://www.w3.org/2000/svg" width="1200" height="72" viewBox="0 0 1200 72.34">
                    <path fill="#fdcc08" d="M0 0v72.34h72.34V0H0Zm53.66 39.11H39v14.66h-4.68V39.11H19.66v-4.68h14.66V19.77H39v14.66h14.66v4.68Z"></path>
                    <g fill="#fff">
                        <path d="M104.82 8.36h4.17V34.6h49.65V8.36h4.17v58.91h-4.17V37.9h-49.65v29.37h-4.17V8.36ZM175.98 8.36h51.19v3.3h-47.02v23.43h45.11v3.3h-45.11v25.58h47.56v3.3h-51.74V8.36ZM237.07 8.36h4.18v55.62h42.48v3.3h-46.66V8.36ZM291.44 8.36h33.76c9.08 0 19.7 2.89 19.7 16.34 0 9.9-6.17 16.67-20.33 16.67h-28.95v25.91h-4.17V8.36Zm4.17 29.71h28.86c7.99 0 16.25-2.89 16.25-13.2 0-13.2-11.71-13.2-17.25-13.2H295.6v26.4ZM369.92 8.36h15.61l38.58 44.23h.18V8.36h13.07v58.91h-15.34l-38.85-44.23h-.18v44.23h-13.07V8.36ZM452.89 8.36h56.27v9.24H466.5v14.85h40.93v9.24H466.5v16.34h43.39v9.24h-57V8.36ZM540.11 17.6h-24.33V8.36h62.27v9.24h-24.33v49.67H540.1V17.6ZM644.58 25.61c-.72-4.04-4.08-6.85-14.07-6.85-7.26 0-11.26 1.9-11.26 5.78 0 1.9 1.64 3.14 4.82 3.63 5.35.91 22.05 3.14 28.4 4.04 12.07 1.9 19.33 6.44 19.33 16.75 0 19.97-28.5 20.13-37.39 20.13-21.96 0-37.94-3.55-39.12-19.97h25.6c.45 4.46 3.35 7.26 14.52 7.26 5.44 0 11.34-1.15 11.34-6.19 0-3.05-2.72-4.21-10.26-5.28l-21.6-2.97c-13.35-1.73-18.52-7.84-18.52-16.67 0-7.67 5.27-18.73 33.67-18.73 23.61 0 37.58 5.2 39.03 19.06h-24.51ZM682.7 8.36h64.9v12.71h-43.29v10.65h40.57v12.21h-40.57v10.64h43.29v12.71h-64.9V8.36ZM837.38 44.58c-2.64 12.79-10.26 24.51-41.03 24.51-27.51 0-40.76-10.89-40.76-31.27s12.62-31.27 40.76-31.27c19.88 0 36.03 4.04 40.84 24.51h-24.05c-1.27-4.29-4.45-11.3-16.7-11.3-13.52 0-17.97 8.33-17.97 18.07s3.99 18.07 17.97 18.07c9.81 0 15.52-4.37 16.97-11.3h23.97ZM847.73 8.36h21.6v34.9c0 9.57 4.91 12.62 14.8 12.62s14.79-3.05 14.79-12.62V8.36h21.61v38.12c0 16.26-13.44 22.61-36.4 22.61s-36.4-6.35-36.4-22.61V8.36ZM934.95 8.36h51.92c15.97 0 21.69 6.6 21.69 16.42 0 7.92-4.53 12.13-10.34 13.45v.16c4.08 1.24 7.17 4.21 7.8 10.56 1 11.55 1.36 15.43 4.09 18.32h-23.69c-1.18-2.56-1.27-6.02-1.27-8.75 0-9.24-3.37-10.89-8.81-10.89h-19.79v19.64h-21.6V8.36Zm21.6 26.07h20.79c5.35 0 8.07-2.47 8.07-6.52s-2.72-6.35-8.07-6.35h-20.79v12.87ZM1021.54 8.36h21.61v58.91h-21.61V8.36ZM1052.13 8.36h69.17v13.2h-23.78v45.71h-21.6V21.56h-23.78V8.36Z"></path>
                        <path d="m1149.63 48.71-28.78-40.35h25.05l14.52 25 14.52-25h25.05l-28.77 40.35v18.56h-21.6V48.71Z"></path>
                    </g>
                </svg>