<svg width="149" height="30" xmlns="http://www.w3.org/2000/svg" viewBox="0 0 360 74" style="fill:#fff;fill-rule:evenodd;clip-rule:evenodd;stroke-linejoin:round;stroke-miterlimit:2;"><defs></defs><g id="Layer_2" data-name="Layer 2"><g id="Layer_1-2" data-name="Layer 1"><g id="InfoWorld"><polygon points="0.53 3.28 0.53 11.67 8.67 11.67 8.67 63.88 0.53 63.88 0.53 72.3 29.17 72.3 29.17 63.88 20.89 63.88 20.89 11.67 29.17 11.67 29.17 3.28 0.53 3.28"></polygon><path d="M46.72,24.8,44.22,27V20.15H25.91V28.2h6.18v44H44.24c0-1.42,0-36.91,0-36.91l.54-.44C48,32.28,51.17,31,54.31,31A5.28,5.28,0,0,1,59,33.28c.87,1.35,1.3,3.53,1.3,6.84V72.19H72.47c0-1.41,0-33.41,0-33.41,0-13.12-4.2-19.51-12.84-19.51-4.31,0-8.66,1.87-12.93,5.53"></path><path d="M83.11,5.38h0a18.25,18.25,0,0,0-4,12v2.35H73.66v8.48h5.48V72.3H90.35V28.21H101.9V19.73H90.44V16.54c0-5.16,1.79-6.94,4.5-8,2.47-1,6.52-.79,10,1.24V2.82A25.63,25.63,0,0,0,94.84.7c-5,0-9.26,1.71-11.73,4.68"></path><path d="M112.33,46.5c0-12.37,4.17-18.65,12.38-18.65a10.69,10.69,0,0,1,9.29,5c2.12,3.11,3.2,7.43,3.2,12.83,0,6.13-1.11,10.74-3.31,13.72a10.93,10.93,0,0,1-9.18,4.74,10.32,10.32,0,0,1-9.49-5.34,24,24,0,0,1-2.89-12.31M106.71,26h0c-4.93,4.82-7.41,11.57-7.41,20s2.48,15.21,7.41,20a25,25,0,0,0,18.05,7.19A24.73,24.73,0,0,0,142.91,66c4.86-4.87,7.32-11.57,7.32-20s-2.49-15.22-7.39-20a26.29,26.29,0,0,0-36.13,0"></path><path d="M224.75,46.5c0-12.37,4.16-18.65,12.36-18.65a10.73,10.73,0,0,1,9.31,5c2.11,3.11,3.17,7.43,3.17,12.83,0,6.13-1.1,10.74-3.3,13.72a10.92,10.92,0,0,1-9.18,4.74,10.31,10.31,0,0,1-9.48-5.34,24.06,24.06,0,0,1-2.88-12.31M219.13,26h0c-4.93,4.82-7.43,11.57-7.43,20s2.5,15.21,7.43,20A26.26,26.26,0,0,0,255.32,66c4.86-4.87,7.32-11.57,7.32-20s-2.49-15.22-7.4-20a26.26,26.26,0,0,0-36.11,0"></path><path d="M279.68,33.37V20.15H262.8V28.2h4.9s0,42.56,0,44h12.21V53.75c0-4.85.27-8.88,1.8-12.33,1.61-3.62,3.74-6,6.33-7.16a26.8,26.8,0,0,1,8.57-1.51V19.3c-5.48,0-13.95,5.73-16.89,14.07"></path><polygon points="295.59 1.12 295.59 9.85 300.01 9.85 300.01 72.3 312.36 72.3 312.36 1.12 295.59 1.12"></polygon><path d="M337.76,64.15c-3.71,0-6.52-1.79-8.35-5.34a26.62,26.62,0,0,1-2.55-12.31c0-12.37,3.67-18.65,10.9-18.65,3.45,0,6.21,1.68,8.19,5,1.86,3.11,2.81,7.43,2.81,12.83,0,6.13-1,10.74-2.92,13.72-2,3.15-4.76,4.74-8.08,4.74m4.54-63V9.85h4.77v14a15.41,15.41,0,0,0-11.25-5c-5.72,0-10.62,2.43-14.57,7.19s-6,11.56-6,20,2,15.21,6,20,8.85,7.19,14.57,7.19a15.78,15.78,0,0,0,11.25-5v3.86h12.4V1.12Z"></path><path d="M200,3v9.25h5.56l-9,40.57L187,3.07h0V3H170.84v9.25h6.35l0,.24L168.6,52.91l-9.75-40.66h6V3H141.63v9.25h4.87S161.8,71,162.09,72h10l9.27-40.83,9,40.83h10.77c.3-1,13.6-59.7,13.6-59.7h5.13V3Z"></path></g></g></g></svg>