<svg id="techtarget-logo" viewBox="0 0 288 150" version="1.1" xmlns="http://www.w3.org/2000/svg" xmlns:xlink="http://www.w3.org/1999/xlink" xml:space="preserve" xmlns:serif="http://www.serif.com/" style="fill:#fff;fill-rule:evenodd;clip-rule:evenodd;stroke-linejoin:round;stroke-miterlimit:2;"><g transform="matrix(1.31477,0,0,1.31477,-46.3587,-43.3817)"><g><g><path d="M62.49,105.87L51.78,105.87L51.78,135.38L45.86,135.38L45.86,105.87L35.26,105.87L35.26,101.06L62.49,101.06L62.49,105.87Z"></path><path d="M69.27,135.86C65.64,135.86 62.7,134.72 60.44,132.43C58.19,130.14 57.06,127.1 57.06,123.29L57.06,122.58C57.06,120.03 57.55,117.76 58.53,115.76C59.51,113.76 60.89,112.2 62.67,111.08C64.45,109.96 66.43,109.41 68.61,109.41C72.08,109.41 74.77,110.52 76.66,112.73C78.55,114.95 79.5,118.08 79.5,122.14L79.5,124.45L62.83,124.45C63,126.56 63.71,128.22 64.94,129.45C66.17,130.68 67.73,131.29 69.6,131.29C72.22,131.29 74.36,130.23 76.01,128.11L79.1,131.06C78.08,132.58 76.71,133.77 75.01,134.61C73.3,135.43 71.39,135.86 69.27,135.86ZM68.58,114C67.01,114 65.74,114.55 64.77,115.65C63.8,116.75 63.19,118.28 62.92,120.25L73.84,120.25L73.84,119.83C73.71,117.91 73.2,116.46 72.31,115.48C71.41,114.49 70.17,114 68.58,114Z"></path><path d="M93.74,131.28C95.17,131.28 96.36,130.86 97.3,130.03C98.24,129.2 98.75,128.17 98.81,126.94L104.21,126.94C104.15,128.53 103.65,130.01 102.73,131.38C101.8,132.76 100.55,133.84 98.96,134.65C97.37,135.45 95.66,135.85 93.82,135.85C90.25,135.85 87.42,134.69 85.33,132.38C83.24,130.07 82.19,126.88 82.19,122.81L82.19,122.22C82.19,118.34 83.23,115.23 85.3,112.9C87.37,110.57 90.2,109.4 93.79,109.4C96.82,109.4 99.29,110.28 101.2,112.05C103.11,113.82 104.11,116.14 104.21,119.02L98.81,119.02C98.75,117.56 98.25,116.36 97.31,115.41C96.37,114.47 95.18,114 93.74,114C91.88,114 90.46,114.67 89.45,116.02C88.44,117.36 87.93,119.4 87.92,122.14L87.92,123.06C87.92,125.83 88.42,127.89 89.42,129.25C90.42,130.6 91.86,131.28 93.74,131.28Z"></path><path d="M113.22,112.66C115.09,110.49 117.45,109.41 120.32,109.41C125.76,109.41 128.52,112.51 128.59,118.72L128.59,135.39L122.86,135.39L122.86,118.93C122.86,117.17 122.48,115.92 121.72,115.19C120.96,114.46 119.84,114.09 118.36,114.09C116.07,114.09 114.35,115.11 113.22,117.15L113.22,135.37L107.49,135.37L107.49,99.17L113.22,99.17L113.22,112.66Z"></path><path d="M154.23,105.87L143.52,105.87L143.52,135.38L137.6,135.38L137.6,105.87L127,105.87L127,101.06L154.23,101.06L154.23,105.87Z"></path><path d="M165.21,135.38C164.96,134.89 164.74,134.1 164.55,133C162.73,134.9 160.5,135.85 157.86,135.85C155.3,135.85 153.21,135.12 151.59,133.66C149.97,132.2 149.16,130.39 149.16,128.24C149.16,125.52 150.17,123.44 152.19,121.98C154.21,120.53 157.1,119.8 160.85,119.8L164.36,119.8L164.36,118.13C164.36,116.81 163.99,115.75 163.25,114.96C162.51,114.17 161.39,113.77 159.88,113.77C158.58,113.77 157.51,114.1 156.67,114.75C155.84,115.4 155.42,116.23 155.42,117.24L149.69,117.24C149.69,115.84 150.15,114.53 151.08,113.32C152.01,112.1 153.27,111.15 154.86,110.46C156.46,109.77 158.24,109.42 160.2,109.42C163.19,109.42 165.57,110.17 167.34,111.67C169.12,113.17 170.03,115.28 170.07,118L170.07,129.5C170.07,131.8 170.39,133.63 171.04,134.99L171.04,135.39L165.21,135.39L165.21,135.38ZM158.91,131.26C160.04,131.26 161.11,130.99 162.1,130.43C163.1,129.88 163.85,129.14 164.35,128.21L164.35,123.4L161.26,123.4C159.14,123.4 157.54,123.77 156.47,124.51C155.4,125.25 154.87,126.29 154.87,127.65C154.87,128.75 155.24,129.63 155.97,130.28C156.71,130.93 157.69,131.26 158.91,131.26Z"></path><path d="M188.47,115.11C187.72,114.98 186.94,114.92 186.14,114.92C183.52,114.92 181.75,115.93 180.84,117.94L180.84,135.39L175.11,135.39L175.11,109.88L180.58,109.88L180.72,112.73C182.1,110.51 184.02,109.41 186.47,109.41C187.29,109.41 187.96,109.52 188.5,109.74L188.47,115.11Z"></path><path d="M189.84,122.44C189.84,118.48 190.77,115.32 192.63,112.95C194.49,110.58 196.96,109.4 200.04,109.4C202.95,109.4 205.23,110.41 206.9,112.44L207.16,109.87L212.32,109.87L212.32,134.6C212.32,137.95 211.28,140.59 209.2,142.52C207.12,144.45 204.31,145.42 200.77,145.42C198.9,145.42 197.07,145.03 195.29,144.25C193.51,143.47 192.15,142.45 191.22,141.2L193.93,137.76C195.69,139.85 197.86,140.9 200.44,140.9C202.34,140.9 203.84,140.38 204.94,139.36C206.04,138.33 206.59,136.82 206.59,134.82L206.59,133.1C204.94,134.94 202.74,135.86 199.99,135.86C197,135.86 194.56,134.67 192.67,132.3C190.78,129.92 189.84,126.64 189.84,122.44ZM195.54,122.94C195.54,125.5 196.06,127.52 197.11,128.99C198.15,130.46 199.61,131.19 201.46,131.19C203.77,131.19 205.48,130.2 206.6,128.22L206.6,117C205.52,115.07 203.82,114.1 201.51,114.1C199.62,114.1 198.16,114.85 197.11,116.34C196.06,117.83 195.54,120.03 195.54,122.94Z"></path><path d="M227.75,135.86C224.12,135.86 221.18,134.72 218.92,132.43C216.67,130.14 215.54,127.1 215.54,123.29L215.54,122.58C215.54,120.03 216.03,117.76 217.01,115.76C217.99,113.76 219.37,112.2 221.15,111.08C222.93,109.96 224.91,109.41 227.09,109.41C230.56,109.41 233.25,110.52 235.14,112.73C237.03,114.95 237.98,118.08 237.98,122.14L237.98,124.45L221.31,124.45C221.48,126.56 222.19,128.22 223.42,129.45C224.65,130.68 226.21,131.29 228.08,131.29C230.7,131.29 232.84,130.23 234.49,128.11L237.58,131.06C236.56,132.58 235.19,133.77 233.49,134.61C231.79,135.43 229.87,135.86 227.75,135.86ZM227.07,114C225.5,114 224.23,114.55 223.26,115.65C222.29,116.75 221.68,118.28 221.41,120.25L232.33,120.25L232.33,119.83C232.2,117.91 231.69,116.46 230.8,115.48C229.9,114.49 228.65,114 227.07,114Z"></path><path d="M248.88,103.68L248.88,109.88L253.38,109.88L253.38,114.12L248.88,114.12L248.88,128.36C248.88,129.34 249.07,130.04 249.46,130.47C249.84,130.9 250.53,131.12 251.52,131.12C252.18,131.12 252.85,131.04 253.52,130.88L253.52,135.31C252.22,135.67 250.96,135.85 249.75,135.85C245.35,135.85 243.15,133.42 243.15,128.57L243.15,114.12L238.95,114.12L238.95,109.88L243.15,109.88L243.15,103.68L248.88,103.68Z"></path></g><path d="M250.15,48.64C247.93,48.64 245.98,46.79 245.98,44.43C245.98,42.09 247.93,40.23 250.15,40.23C252.36,40.23 254.31,42.08 254.31,44.43C254.31,46.79 252.35,48.64 250.15,48.64M250.15,40.68C248.08,40.68 246.51,42.38 246.51,44.43C246.51,46.49 248.08,48.19 250.15,48.19C252.22,48.19 253.78,46.49 253.78,44.43C253.78,42.38 252.21,40.68 250.15,40.68M251.31,46.8L249.83,44.77L249.09,44.77L249.09,46.8L248.6,46.8L248.6,42.07L250.03,42.07C251.22,42.07 251.79,42.5 251.79,43.35C251.79,44.09 251.15,44.7 250.44,44.73L251.98,46.8L251.31,46.8ZM249.9,42.52L249.08,42.52L249.08,44.36L250,44.36C250.82,44.36 251.25,44.04 251.25,43.37C251.26,42.66 250.55,42.52 249.9,42.52"></path><g><path d="M253.7,64.11L253.7,60.87C236.76,43.97 214.26,34.66 190.35,34.66C166.43,34.66 143.94,43.97 127,60.87L127,64.11C142.19,52.55 160.24,45.38 179.23,43.37L180.2,43.27L179.31,43.67C169.77,48 163.6,57.56 163.6,68.01C163.6,82.76 175.6,94.76 190.35,94.76C205.1,94.76 217.1,82.76 217.1,68.01C217.1,57.56 210.94,48 201.39,43.67L200.5,43.27L201.47,43.37C220.46,45.38 238.52,52.55 253.7,64.11ZM210.01,68.01C210.01,78.85 201.19,87.67 190.35,87.67C179.51,87.67 170.69,78.85 170.69,68.01C170.69,57.17 179.51,48.35 190.35,48.35C201.19,48.35 210.01,57.17 210.01,68.01Z"></path><path d="M178.59,68.05C178.59,74.54 183.87,79.81 190.35,79.81C196.84,79.81 202.11,74.53 202.11,68.05C202.11,61.57 196.83,56.29 190.35,56.29C183.86,56.28 178.59,61.56 178.59,68.05ZM195.21,68.05C195.21,70.73 193.03,72.91 190.35,72.91C187.67,72.91 185.49,70.73 185.49,68.05C185.49,65.37 187.67,63.19 190.35,63.19C193.03,63.19 195.21,65.37 195.21,68.05Z"></path></g></g></g></svg>