<svg width="50" height="50" viewBox="0 0 1437 1437" xmlns="http://www.w3.org/2000/svg"><g clip-path="url(#clip0_2_799)"><rect width="1437" height="1437" rx="200" fill="#DF130A"></rect><path d="M795.956 1205.92H483.541C479.283 1205.92 475.957 1203.12 475.957 1199.8C475.957 1196.47 479.416 1193.67 483.541 1193.67H795.956C800.213 1193.67 803.54 1196.47 803.54 1199.8C803.54 1203.12 800.213 1205.92 795.956 1205.92Z" fill="white"></path><path d="M795.956 1209.24H483.541C477.554 1209.24 472.631 1204.98 472.631 1199.8C472.631 1194.61 477.554 1190.35 483.541 1190.35H795.956C801.943 1190.35 806.866 1194.61 806.866 1199.8C806.999 1204.98 802.076 1209.24 795.956 1209.24ZM483.541 1196.87C481.013 1196.87 479.284 1198.33 479.284 1199.66C479.284 1200.99 481.013 1202.46 483.541 1202.46H795.956C798.484 1202.46 800.214 1200.99 800.214 1199.66C800.214 1198.33 798.484 1196.87 795.956 1196.87H483.541Z" fill="white"></path><path d="M795.956 1209.24H483.541C477.554 1209.24 472.631 1204.98 472.631 1199.8C472.631 1194.61 477.554 1190.35 483.541 1190.35H795.956C801.943 1190.35 806.866 1194.61 806.866 1199.8C806.999 1204.98 802.076 1209.24 795.956 1209.24ZM483.541 1196.87C481.013 1196.87 479.284 1198.33 479.284 1199.66C479.284 1200.99 481.013 1202.46 483.541 1202.46H795.956C798.484 1202.46 800.214 1200.99 800.214 1199.66C800.214 1198.33 798.484 1196.87 795.956 1196.87H483.541Z" fill="white"></path><path d="M795.956 1212.57H483.542C475.691 1212.57 469.305 1206.85 469.305 1199.8C469.305 1192.74 475.691 1187.02 483.542 1187.02H795.956C803.806 1187.02 810.193 1192.74 810.193 1199.8C810.193 1206.85 803.939 1212.57 795.956 1212.57ZM475.957 1199.66C475.957 1202.99 479.417 1205.78 483.542 1205.78H795.956C800.214 1205.78 803.54 1202.99 803.54 1199.66C803.54 1202.99 800.081 1205.78 795.956 1205.78H483.542C479.417 1205.92 475.957 1203.12 475.957 1199.66Z" fill="white"></path><path d="M446.419 1200.99C446.286 1183.7 459.858 1170.26 477.554 1169.99C492.988 1169.73 507.092 1184.76 506.959 1201.13C506.826 1216.16 492.988 1229.47 477.022 1229.87C459.591 1230.27 446.552 1218.02 446.419 1200.99Z" fill="white"></path><path d="M799.149 1228.27C781.719 1228 769.744 1216.56 769.744 1199.8C769.611 1182.76 784.247 1168.53 801.411 1168.93C815.648 1169.33 830.417 1183.7 830.417 1197.27C830.55 1215.23 817.245 1228.54 799.149 1228.27Z" fill="white"></path><path d="M587.591 208H689.379L533.304 672.497H420.34L264 208H365.788L476.623 573.504L587.591 208Z" fill="white"></path><path d="M746.459 672.497V208H844.122V431.134L1005.12 208H1118.08L947.24 437.388L1169.84 685.669H1049.16L843.989 444.44V672.497H746.459Z" fill="white"></path><path d="M661.836 742.085V819.523H525.587V1126.75H427.925V819.523H291.676V742.085H661.836Z" fill="white"></path><path d="M1084.29 883.656C1084.29 916.654 1074.97 944.462 1056.35 966.949C1037.72 989.568 1022.95 1006.87 988.089 1018.84L1172.9 1219.75H1051.56L877.121 1037.07H845.719V1126.75H748.057V742.085H886.834C915.707 742.085 942.185 745.012 966.401 750.867C990.617 756.721 1011.37 765.503 1028.8 777.345C1046.23 789.187 1059.81 803.956 1069.65 821.652C1079.36 839.216 1084.29 859.972 1084.29 883.656ZM986.625 885.785C986.625 862.101 977.311 844.937 958.684 834.159C940.056 823.515 915.84 818.06 886.168 818.06H845.719V963.09H874.992C908.522 963.09 935.399 956.57 955.889 943.531C976.38 930.625 986.625 911.332 986.625 885.785Z" fill="white"></path></g><defs><clipPath id="clip0_2_799"><rect width="1437" height="1437" rx="200" fill="white"></rect></clipPath></defs></svg>