<svg width="200" height="51" viewBox="0 0 337.5 75.4" xmlns="http://www.w3.org/2000/svg"><path fill="#F78E23" d="M53.1,22.3c-3.4-1.8-8.5-3.7-14.4-3.7c-11.6,0-19.8,8.6-19.8,19.9c0,11.3,8.2,19.9,19.8,19.9
c6.2,0,11.3-1.9,14.8-3.6v4.8c-2.3,1.3-7.6,3.5-14.8,3.5c-14.3,0-24.9-10.7-24.9-24.6c0-13.9,10.6-24.6,24.9-24.6
c6.9,0,12.1,2.3,14.4,3.6V22.3z"></path><path fill="#F78E23" d="M71.1,29.2l-1.3-1.9c0.1,1.5,0.1,3,0.1,4.4v30.5H65V13.9H65l21.2,27.8l21.2-27.8h0.1v48.5h-4.9V31.8
c0-1.5,0-2.9,0.1-4.4c-0.7,1.1-1.7,2.5-2.6,3.7L86.2,49L71.1,29.2z"></path><path fill="#F78E23" d="M119.8,60.3v-5c3.1,1.5,8,3.3,13.2,3.3c6.2,0,11-2.8,11-7.6s-2.6-7.4-11-10.4c-9.5-3.4-13.4-7.4-13.4-14.3
c0-7.9,6.8-12.4,15.3-12.4c4.8,0,9.1,1.3,11.6,2.5v4.9c-2.6-1.3-7.2-2.8-11.4-2.8c-6.1,0-10.5,3-10.5,7.6c0,4.3,2.3,7.3,10.9,10.4
c9.5,3.4,13.5,7.2,13.5,14.2c0,7.9-6.4,12.5-15.7,12.5C127.8,63.1,122.8,61.7,119.8,60.3z"></path><path fill="#F78E23" d="M159,14.6l7.6,19.9c1.9,4.8,3.4,9.7,4.6,13.2c1.3-3.5,3-7.7,5-12.5l8.1-19.9h0.1l8.1,19.9c2,4.8,3.7,9,5,12.5
c1.2-3.5,2.8-8.3,4.6-13.2l7.6-19.9h6.9l-19.1,48.5h-0.1l-10.3-25.9c-0.9-2.3-2-4.9-2.7-7.2c-0.8,2.3-1.9,4.9-2.7,7.2l-10.3,25.9
h-0.1l-19.1-48.5H159z"></path><path fill="#F78E23" d="M226.5,62.3V14.6h6.4v47.7H226.5z"></path><path fill="#F78E23" d="M263,14.6c10.5,0,16.8,5.4,16.8,14.6c0,7.1-4.6,11.8-9.7,13.4l10.8,19.7h-7.1l-9.9-18.7h-9.9v18.7h-6.4V14.6
H263z M253.9,20v18.4h9.4c6.3,0,10.1-3.4,10.1-9.2s-4-9.2-10.6-9.2H253.9z"></path><path fill="#F78E23" d="M291.1,62.3V14.6h29.3V20h-22.9v15.5h19.3v5.4h-19.3V57h23.9v5.4H291.1z"></path></svg>