<svg viewBox="0 0 709 141" xmlns="http://www.w3.org/2000/svg" aria-labelledby="title">
  <title>reversinglabs</title>
  <path d="M140.835 0H0V140.835H140.835V0Z"/>
  <path d="M29.1182 97.5357L41.7359 75.7295C38.7779 74.6156 36.2706 72.5564 34.6033 69.8716C32.9356 67.1869 32.2012 64.0266 32.5139 60.8815V60.4485C32.5139 46.3329 43.1674 43.8027 56.0514 43.8027C61.4447 43.8027 66.272 43.8027 70.9992 44.1356V97.6355H61.2116V77.8933H56.251C54.5864 77.8933 52.9219 77.8933 51.5901 77.8933L39.7716 97.7022L29.1182 97.5357ZM42.4348 60.9147C42.4348 67.8395 46.5298 69.8035 55.7517 69.8035C57.6159 69.8035 59.4138 69.8035 61.2779 69.8035V52.2589C48.1943 52.2589 42.4348 52.2589 42.4348 60.5818V60.9147Z" fill="white"/>
  <path d="M81.0498 97.5371V44.0703H91.1371V89.0478H113.809V97.5371H81.0498Z" fill="white"/>
  <path d="M185.875 61.3426V61.8224C185.875 69.8164 189.4 74.0534 195.077 76.4783L182.512 97.9031H193.275L205.033 78.3705C206.46 78.3705 208.047 78.3705 209.688 78.3705H214.666V97.9031H224.407V45.1942C219.671 44.9809 214.881 44.8477 209.473 44.8477C196.504 44.8477 185.875 47.4058 185.875 61.3426ZM214.532 70.5627C212.648 70.5627 210.845 70.5627 208.989 70.5627C199.813 70.5627 195.696 68.6441 195.696 61.8224V61.3958C195.696 53.215 201.455 53.1353 214.532 53.1353V70.5627Z" fill="black"/>
  <path d="M287.664 81.9126C286.722 84.9771 286.077 88.521 285.512 91.3722C284.785 88.7075 284.274 84.9771 283.359 81.9126L272.354 45.2988H230.916V97.9009H264.873V89.9066H240.98V74.9041H263.367V66.9098H240.98V53.5861H264.416L277.87 98.141H292.508L308.652 45.3253H298.535L287.664 81.9126Z" fill="black"/>
  <path d="M311.567 98.0146H345.525V89.8606H321.632V74.858H344.019V66.8902H321.632V53.4601H345.525V45.1992H311.567V98.0146Z" fill="black"/>
  <path d="M389.747 61.8224V61.3426C389.747 47.4058 379.119 44.8477 366.258 44.8477C360.876 44.8477 356.087 44.9809 351.35 45.1942V97.9031H361.092V78.4238H366.069C367.709 78.4238 369.298 78.4238 370.725 78.4238L382.511 97.9563H393.139L380.546 76.5851C386.223 74.0534 389.747 69.8699 389.747 61.8224ZM379.901 61.8224C379.901 68.6441 375.809 70.5627 366.635 70.5627C364.779 70.5627 362.975 70.5627 361.092 70.5627V53.215C374.169 53.215 379.928 53.215 379.928 61.4758L379.901 61.8224Z" fill="black"/>
  <path d="M418.251 67.6588L411.012 64.7541C405.63 62.6225 404.176 60.97 404.176 57.7723C404.176 53.5088 407.568 52.443 413.809 52.443C419.407 52.443 424.868 53.0293 428.96 53.3755V45.8343C423.846 44.703 418.619 44.131 413.38 44.1289C400.732 44.1289 394.275 47.8329 394.275 58.0656C394.275 65.7402 398.498 70.217 406.409 73.4147L414.484 76.6921C419.863 78.8773 421.156 80.8227 421.156 84.2334C421.156 88.9768 418.062 90.7621 411.603 90.7621C406.257 90.7545 400.911 90.47 395.593 89.9093V97.5306C401.121 98.639 406.747 99.1836 412.385 99.1562C424.384 99.1562 431.218 93.8266 431.218 84.1537C431.3 75.2001 427.588 71.416 418.251 67.6588Z" fill="black"/>
  <path d="M445.761 45.1992H435.724V98.0146H445.761V45.1992Z" fill="black"/>
  <path d="M486.168 73.9252C486.168 77.1229 486.168 80.8269 486.439 83.9449H486.168C485.012 81.2799 483.478 78.3223 482.079 75.9506L465.074 45.2525H453.421V97.9081H462.625V68.2225C462.625 65.0248 462.463 61.7741 462.329 58.7894H462.463C463.702 61.4544 465.153 64.2523 466.498 66.7837L483.585 98.1214H495.289V45.1992H486.168V73.9252Z" fill="black"/>
  <path d="M527.217 69.8711V77.4389H531.307V90.2562C529.451 90.4163 526.785 90.4695 524.123 90.4695C515.513 90.4695 511.071 87.4318 511.071 75.3337V67.8725C511.071 54.7086 516.669 52.7899 525.358 52.7899C529.019 52.7899 537.334 53.2162 540.778 53.5092V45.9147C535.137 44.7098 529.381 44.1113 523.612 44.1293C512.552 44.1293 501.088 47.6736 501.088 67.8725V75.3337C501.088 94.4665 511.207 99.1566 523.423 99.1566C529.274 99.1724 535.113 98.6278 540.857 97.531V69.8711H527.217Z" fill="black"/>
  <path d="M594.119 45.1924L580.665 89.614H557.98V45.1924H547.945V97.9013H588.305L593.042 83.1121H610.208L614.812 97.9013H625.357L609.213 45.0859L594.119 45.1924ZM594.843 75.0377L599.364 60.4883C600.146 57.8233 600.658 54.9986 601.22 52.1474H601.869C602.334 54.9587 602.955 57.743 603.724 60.4883L608.191 75.0377H594.843Z" fill="#66ff00"/>
  <path d="M659.694 70.8596C661.805 69.8868 663.576 68.3123 664.778 66.3377C665.983 64.3631 666.564 62.0778 666.448 59.7743V59.1348C666.448 47.2499 657.622 44.7715 643.334 44.7715C637.228 44.7715 634.641 44.9047 627.619 45.198V97.9069C634.374 98.1999 636.957 98.3332 643.039 98.3332C656.843 98.3332 666.743 95.855 666.743 82.6379V81.9183C666.853 79.5822 666.235 77.2696 664.973 75.2919C663.713 73.3146 661.869 71.7675 659.694 70.8596ZM637.389 52.9523H643.334C651.89 52.9523 656.788 53.4321 656.788 59.481V60.1206C656.788 64.5441 654.795 67.2356 646.535 67.2356H637.495L637.389 52.9523ZM656.895 82.7444C656.895 90.2056 651.029 90.2592 640.106 90.2592H637.413V74.4303H646.51C654.716 74.4303 656.867 77.335 656.922 81.9451L656.895 82.7444Z" fill="#66ff00"/>
  <path d="M696.035 67.6588L688.8 64.7276C683.417 62.6222 681.963 60.97 681.963 57.7726C681.963 53.5088 685.355 52.443 691.596 52.443C697.194 52.443 702.655 53.0025 706.745 53.3755V45.8343C701.633 44.6994 696.406 44.1274 691.167 44.1289C678.519 44.1289 672.062 47.8061 672.062 58.0656C672.062 65.7402 676.313 70.217 684.196 73.4147L692.268 76.6921C697.65 78.8773 698.943 80.7959 698.943 84.2334C698.943 88.9768 695.849 90.7621 689.39 90.7621C683.998 90.7594 678.607 90.4746 673.246 89.9096V97.5041C678.777 98.6393 684.415 99.193 690.062 99.1562C702.038 99.1562 708.899 93.8266 708.899 84.1537C709.194 75.2001 705.455 71.416 696.035 67.6588Z" fill="#66ff00"/>
</svg>
